<svg width="150" height="150" viewBox="0 0 150 150" fill="none" xmlns="http://www.w3.org/2000/svg">
<path id="GitHub SVG" d="M97.1615 149.905C127.764 140.245 150 111.103 150 76.6533C150 34.3188 116.421 0 75 0C33.5786 0 0 34.3188 0 76.6533C0 111.217 22.3824 140.437 53.1415 150C54.0511 149.723 56.4904 148.395 56.4904 146.305C56.3942 146.305 56.3702 137.46 56.3702 133.038C51.6827 134.184 40.7692 134.831 35.5769 129.23C32.5721 126.159 32.047 125.421 31.0096 122.596C30.8063 122.147 30.6181 121.704 30.4301 121.261C29.4695 118.997 28.516 116.751 25.6009 113.874C25.6009 113.874 22.7163 111.172 20.9134 109.943C20.032 109.206 18.8942 107.56 21.3942 106.872C22.9166 106.627 26.6586 106.7 29.4471 108.961C30.649 109.739 33.4134 112.007 34.8557 114.857C35.5769 116.413 38.149 120.066 42.6683 122.228C44.2708 122.801 48.4134 123.702 52.1634 122.719C53.2852 122.391 55.7692 121.589 56.7307 120.999C56.9311 118.788 57.4519 114.857 61.2981 110.803C61.2981 110.803 28.4856 109.698 27.524 77.8817C26.6025 72.4766 26.8029 59.9468 34.9759 52.0849C33.6939 49.3824 32.0192 41.3977 35.5769 31.5703C38.4215 30.9971 46.4904 31.7423 56.0096 39.3094C63.6218 37.5077 76.2019 35.1327 93.75 39.3094C93.75 39.3094 108.654 29.6049 114.423 31.6932C115.385 33.0444 118.75 43.2403 115.385 51.8392C119.111 56.1387 124.712 63.9269 122.596 80.3385C122.596 80.3385 122.596 108.224 88.9423 110.803C90.5448 111.991 93.774 116.38 93.8702 124.439C93.9663 132.497 93.9102 142.374 93.8702 146.305C93.946 147.583 94.7174 149.983 97.1615 149.905Z" fill="#E7DBB3"/>
</svg>
