<svg width="109" height="109" viewBox="0 0 109 109" fill="none" xmlns="http://www.w3.org/2000/svg">
<path id="Spotify SVG" fill-rule="evenodd" clip-rule="evenodd" d="M54.5 109C84.5995 109 109 84.5995 109 54.5C109 24.4005 84.5995 0 54.5 0C24.4005 0 0 24.4005 0 54.5C0 84.5995 24.4005 109 54.5 109ZM19.2567 33.4267C22.1633 30.52 33.79 29.9506 37.06 29.7933C43.9633 29.4613 59.5867 29.2847 69.76 31.61C75.0889 33.0634 87.1273 36.9147 92.65 40.6934C95.92 42.51 94.4667 50.8667 87.5633 49.05C86.6474 48.7447 85.5318 48.1828 84.1289 47.4761C80.5233 45.6599 75.0195 42.8875 66.1267 41.0567C56.8052 39.1782 45.6236 39.4497 40.7626 39.5678C39.9395 39.5878 39.2976 39.6033 38.8767 39.6033C34.0981 39.8205 31.9977 40.3835 30.0284 40.9113C29.3623 41.0898 28.7113 41.2643 27.9767 41.42C26.5233 41.7833 23.3744 42.1467 22.1633 42.1467C19.5473 42.1467 18.1667 40.8144 17.8033 39.9667C16.0593 37.06 18.0456 34.3956 19.2567 33.4267ZM38.8767 48.3233C36.1035 48.418 25.4665 49.0957 22.9684 51.5298C21.9305 52.3382 20.2154 54.5775 21.6587 57.0668C21.9566 57.7912 23.1108 58.9391 25.3279 58.9702C26.3543 58.9846 28.4114 58.7048 30.2676 58.1136C30.3723 58.0852 30.4776 58.0563 30.5846 58.027C32.2308 57.5759 34.2556 57.0211 39.9667 56.3167C45.4167 55.9533 52.9184 56.1184 62.13 58.1136C69.5989 59.7642 74.4599 62.3971 77.6317 64.1151C78.893 64.7983 79.8872 65.3368 80.672 65.6113C86.501 67.2363 87.8323 60.1563 85.0826 58.5745C80.4472 55.2996 70.2906 51.8854 65.7916 50.5877C56.3167 47.96 44.7312 48.1234 38.8767 48.3233ZM24.1191 68.9699C26.0995 67.0469 35.3709 65.8345 37.5658 65.7633C37.7711 65.7567 37.9895 65.7494 38.2202 65.7416C43.1971 65.5748 53.8766 65.2168 61.04 67.2167C64.5989 68.2498 74.4524 71.5924 78.1167 74.1906C81.0233 75.9367 80.5477 81.5907 75.9367 80.2967C75.3937 80.1057 74.446 79.6317 73.1941 79.0055C69.4156 77.1156 62.8666 73.8399 56.3167 72.7815C51.5933 71.5767 37.7867 72.6667 37.06 72.7815C37.06 72.7815 32.7 73.3933 29.8872 74.1906C28.4173 74.656 26.7888 74.8746 25.9764 74.8618C24.2218 74.8342 23.3098 73.9241 23.0751 73.3505C21.9361 71.3783 23.2965 69.6084 24.1191 68.9699Z" fill="#E7DBB3"/>
</svg>
