<svg id="cta-btn" viewBox="0 0 153 174" fill="none" xmlns="http://www.w3.org/2000/svg">
    <path id="cta-btn-polygon" d="M4.32202 127.563V45.1698L76.7006 4.02717L148.896 45.1673V128.113L76.5284 169.069L4.32202 127.563Z" />
    <path id="cta-l2" class="cta-text-path" d="M28.956 119V95.438H21.522V92.792H39.666V95.438H31.938V119H28.956ZM53.61 119.462C50.614 119.462 48.304 118.3 46.68 115.976C45.056 113.652 44.244 110.348 44.244 106.064C44.244 101.92 45.056 98.658 46.68 96.278C48.304 93.87 50.614 92.666 53.61 92.666C56.606 92.666 58.916 93.87 60.54 96.278C62.164 98.658 62.976 101.92 62.976 106.064C62.976 110.348 62.164 113.652 60.54 115.976C58.916 118.3 56.606 119.462 53.61 119.462ZM53.61 116.9C55.598 116.9 57.152 115.962 58.272 114.086C59.392 112.21 59.952 109.536 59.952 106.064C59.952 102.76 59.392 100.128 58.272 98.168C57.152 96.208 55.598 95.228 53.61 95.228C51.622 95.228 50.068 96.208 48.948 98.168C47.828 100.128 47.268 102.76 47.268 106.064C47.268 109.536 47.828 112.21 48.948 114.086C50.068 115.962 51.622 116.9 53.61 116.9ZM76.542 119.462C73.742 119.462 71.628 118.636 70.2 116.984C68.8 115.304 68.1 112.966 68.1 109.97V92.834H71.376V93.128C71.208 93.296 71.096 93.478 71.04 93.674C71.012 93.87 70.998 94.206 70.998 94.682V110.012C70.998 112.14 71.404 113.834 72.216 115.094C73.056 116.354 74.512 116.984 76.584 116.984C78.684 116.984 80.154 116.354 80.994 115.094C81.834 113.834 82.254 112.098 82.254 109.886V92.834H85.068V109.844C85.068 113.148 84.284 115.584 82.716 117.152C81.176 118.692 79.118 119.462 76.542 119.462ZM100.86 119.42C98.984 119.42 97.262 118.958 95.694 118.034C94.154 117.082 92.922 115.626 91.998 113.666C91.102 111.678 90.64 109.144 90.612 106.064C90.612 103.488 90.906 101.346 91.494 99.638C92.11 97.902 92.908 96.53 93.888 95.522C94.868 94.486 95.946 93.744 97.122 93.296C98.326 92.848 99.516 92.624 100.692 92.624C102.596 92.624 104.22 93.1 105.564 94.052C106.908 94.976 107.916 96.222 108.588 97.79L106.068 98.966L105.69 99.134L105.564 98.84C105.648 98.616 105.648 98.42 105.564 98.252C105.48 98.056 105.326 97.762 105.102 97.37C104.402 96.418 103.674 95.788 102.918 95.48C102.19 95.144 101.42 94.976 100.608 94.976C98.396 94.976 96.646 95.942 95.358 97.874C94.098 99.778 93.468 102.438 93.468 105.854C93.468 108.038 93.79 109.97 94.434 111.65C95.106 113.302 95.988 114.59 97.08 115.514C98.172 116.438 99.39 116.9 100.734 116.9C101.798 116.9 102.792 116.62 103.716 116.06C104.668 115.472 105.438 114.688 106.026 113.708L108.21 115.136C107.37 116.536 106.362 117.6 105.186 118.328C104.01 119.056 102.568 119.42 100.86 119.42ZM113.88 92.834H117.324V93.128C117.156 93.296 117.044 93.478 116.988 93.674C116.96 93.87 116.946 94.206 116.946 94.682V104.006H127.194V92.834H130.638V93.128C130.47 93.296 130.358 93.478 130.302 93.674C130.274 93.87 130.26 94.206 130.26 94.682V119H127.152V106.526H116.946V119H113.88V92.834Z" />
    <path id="cta-l1" class="cta-text-path" d="M31.58 85.4C29.6067 85.4 27.8867 84.88 26.42 83.84C24.98 82.8 23.8733 81.3333 23.1 79.44C22.3267 77.5467 21.94 75.3467 21.94 72.84C21.9133 70.1467 22.2067 67.9467 22.82 66.24C23.46 64.5333 24.2733 63.2133 25.26 62.28C26.2733 61.3467 27.3267 60.7067 28.42 60.36C29.54 59.9867 30.5533 59.8 31.46 59.8C32.9533 59.8267 34.38 60.2267 35.74 61C37.1 61.7467 38.1267 62.7467 38.82 64L36.86 65.56L36.54 65.84L36.38 65.6C36.4067 65.3867 36.3667 65.2 36.26 65.04C36.18 64.8533 35.9933 64.5867 35.7 64.24C35.0867 63.5467 34.4467 63.0533 33.78 62.76C33.14 62.44 32.3533 62.28 31.42 62.28C30.22 62.28 29.1 62.5867 28.06 63.2C27.0467 63.7867 26.2333 64.8 25.62 66.24C25.0067 67.68 24.7 69.68 24.7 72.24C24.7 75.7067 25.3133 78.36 26.54 80.2C27.7933 82.0133 29.4733 82.92 31.58 82.92C32.3 82.92 33.1 82.8 33.98 82.56C34.8867 82.32 35.66 81.9333 36.3 81.4V75.48H31.78V73.04H38.9V82.8C36.5267 84.5333 34.0867 85.4 31.58 85.4ZM42.86 85V60.04H58.14V62.52H45.5V70.72H55.94V73.28H45.5V82.52H58.02V85H42.86ZM68.82 85V62.56H61.74V60.04H79.02V62.56H71.66V85H68.82ZM95.74 85V82.64H100.66V62.44H96.02V60.08H108.38V62.44H103.46V82.68H108.62V85H95.74ZM114.5 60.08H117.22L127.7 78.56V60.08H130.74V60.36C130.58 60.52 130.473 60.6933 130.42 60.88C130.393 61.0667 130.38 61.3867 130.38 61.84V85H128.18L117.18 65.4V85H114.5V60.08Z" fill="white"/>
    </svg>