<svg width="150" height="150" viewBox="0 0 150 150" fill="none" xmlns="http://www.w3.org/2000/svg">
<path fill-rule="evenodd" clip-rule="evenodd" d="M14 0C6.26801 0 0 6.26801 0 14V136C0 143.732 6.26801 150 14 150H136C143.732 150 150 143.732 150 136V14C150 6.26801 143.732 0 136 0H14ZM34.5 49C43.6127 49 51 41.6127 51 32.5C51 23.3873 43.6127 16 34.5 16C25.3873 16 18 23.3873 18 32.5C18 41.6127 25.3873 49 34.5 49ZM21 60C21 56.6863 23.6863 54 27 54H41C44.3137 54 47 56.6863 47 60V128C47 131.314 44.3137 134 41 134H27C23.6863 134 21 131.314 21 128V60ZM77 135H63C59.6863 135 57 132.314 57 129V58.7101C57 58.4048 57.013 58.0963 57.1126 57.8077C57.5065 56.6665 58.8435 55 62 55H79.5C83.5008 55 83.0039 60.2915 82.6282 62.9837C82.4839 64.0178 82.6075 63.9526 83.0434 63.0038C85.1985 58.3127 91.2089 55.0879 101 54C101.346 54 101.742 53.9951 102.18 53.9897C106.173 53.9402 113.742 53.8464 120.5 57C122.771 58.1355 127.915 62.1759 130.77 69.3979C130.874 69.6597 130.989 69.9152 131.104 70.1711C131.164 70.3042 131.224 70.4374 131.283 70.5715C132.115 72.4829 134.5 79.6881 134.5 99.5V130C134.333 131.333 133.1 133.9 129.5 133.5H112.474C111.829 133.5 111.167 133.423 110.638 133.055C109.763 132.445 108.837 131.281 108.956 129.425C108.96 129.359 108.965 129.293 108.969 129.227C108.985 129.01 109 128.791 109 128.574V91C109 85.6667 106.4 75 96 75C92.5643 74.8364 85.2741 77.0176 83.1157 86.9352C83.0348 87.3068 83 87.6914 83 88.0717V129C83 132.314 80.3137 135 77 135Z" fill="#E7DBB3"/>
</svg>
