<svg width="695" height="560" viewBox="0 0 695 560" fill="none" xmlns="http://www.w3.org/2000/svg">
<g id="Quote-1">
<path id="q1-polygon" d="M464.012 307.496L464.007 307.504L341.994 518.993L50.9822 15H633.01L464.012 307.496Z" stroke="#DE7254" stroke-width="30"/>
<path id="q1-credit" d="M380.232 535.82L382.845 531.302L379.885 529.59L377.272 534.109L380.232 535.82ZM393.758 528.97C394.467 527.745 394.606 526.522 394.174 525.302C393.743 524.082 392.821 523.064 391.408 522.247C390.546 521.748 389.612 521.493 388.608 521.48C387.593 521.462 386.233 521.68 384.528 522.136C383.383 522.486 382.481 522.678 381.823 522.714C381.161 522.733 380.59 522.604 380.113 522.328C378.897 521.625 378.476 520.951 378.848 520.307C379.058 519.944 379.364 519.774 379.766 519.798C380.163 519.806 380.721 520.018 381.437 520.432L383.131 517.503C381.521 516.572 380.161 516.215 379.051 516.432C377.931 516.644 376.978 517.452 376.194 518.856C375.518 520.073 375.39 521.253 375.81 522.397C376.23 523.541 377.156 524.527 378.59 525.356C379.203 525.711 379.82 525.95 380.442 526.073C381.053 526.191 381.76 526.191 382.563 526.073C383.366 525.955 384.363 525.728 385.556 525.392C386.769 525.068 387.677 524.9 388.28 524.888C388.883 524.876 389.434 525.014 389.932 525.303C391.158 526.011 391.561 526.729 391.14 527.457C390.876 527.914 390.445 528.143 389.848 528.144C389.241 528.14 388.527 527.9 387.707 527.426L386.013 530.355C387.664 531.31 389.17 531.668 390.528 531.428C391.877 531.181 392.953 530.362 393.758 528.97ZM399.796 518.528C400.115 517.977 400.366 517.374 400.551 516.719L397.466 514.935C397.237 515.523 397.056 515.931 396.924 516.16C396.539 516.825 395.412 516.616 393.542 515.535L385.066 510.634L386.309 508.483L383.473 506.843L382.23 508.994L378.022 506.561L376.202 509.708L380.409 512.141L379.49 513.731L382.326 515.371L383.245 513.781L391.972 518.827C393.977 519.986 395.601 520.545 396.846 520.502C398.08 520.453 399.064 519.795 399.796 518.528ZM403.943 511.356C404.67 510.099 404.839 508.873 404.449 507.677C404.055 506.465 403.156 505.453 401.754 504.642L399.946 503.597L398.252 506.527L400.122 507.608C400.652 507.914 401.016 508.256 401.213 508.634C401.4 509.005 401.392 509.368 401.188 509.721C400.983 510.074 400.671 510.268 400.249 510.301C399.817 510.329 399.337 510.189 398.807 509.883L395.098 507.739L398.108 502.534L393.308 499.759C391.916 498.954 390.597 498.683 389.349 498.946C388.108 499.199 387.13 499.943 386.415 501.179C385.689 502.436 385.538 503.68 385.963 504.91C386.384 506.124 387.322 507.151 388.776 507.992L396.879 512.677C398.354 513.53 399.72 513.842 400.976 513.611C402.227 513.365 403.216 512.613 403.943 511.356ZM392.636 506.315L390.236 504.927C389.073 504.255 388.713 503.534 389.158 502.765C389.59 502.017 390.388 501.979 391.552 502.652L393.952 504.04L392.636 506.315ZM408.242 503.346L410.044 500.23L394.601 487.599L392.835 490.653L402.119 497.394L403.138 498.149L402.994 498.399L401.831 497.893L391.357 493.209L389.591 496.263L408.242 503.346ZM414.907 492.395C415.634 491.138 415.802 489.912 415.413 488.716C415.018 487.504 414.12 486.493 412.718 485.682L410.91 484.636L409.216 487.566L411.086 488.647C411.616 488.954 411.98 489.296 412.177 489.673C412.364 490.045 412.356 490.407 412.151 490.76C411.947 491.114 411.634 491.307 411.213 491.34C410.781 491.368 410.3 491.229 409.771 490.922L406.062 488.778L409.071 483.573L404.272 480.798C402.88 479.993 401.56 479.722 400.313 479.985C399.072 480.238 398.094 480.982 397.379 482.219C396.652 483.475 396.502 484.719 396.927 485.949C397.348 487.163 398.286 488.19 399.74 489.031L407.843 493.717C409.318 494.57 410.684 494.881 411.939 494.651C413.191 494.404 414.18 493.652 414.907 492.395ZM403.6 487.354L401.2 485.967C400.037 485.294 399.677 484.573 400.122 483.804C400.554 483.056 401.352 483.019 402.516 483.692L404.915 485.079L403.6 487.354ZM401.235 469.87L403.055 466.722L399.907 464.902L398.087 468.05L401.235 469.87ZM426.582 485.15C427.339 483.841 427.461 482.671 426.948 481.64C426.446 480.615 425.213 479.535 423.25 478.399L405.766 468.29L403.946 471.437L421.398 481.529C422.312 482.058 422.914 482.503 423.204 482.864C423.494 483.226 423.537 483.584 423.333 483.937C423.267 484.051 423.158 484.203 423.007 484.393C422.855 484.583 422.754 484.697 422.704 484.737L425.602 486.413C425.925 486.143 426.251 485.721 426.582 485.15ZM426.662 472.067C427.359 470.861 427.518 469.651 427.14 468.434C426.763 467.218 425.919 466.231 424.61 465.474L415.853 460.41C414.554 459.659 413.284 459.424 412.041 459.703C410.788 459.977 409.813 460.716 409.116 461.921C408.419 463.126 408.268 464.334 408.662 465.547C409.056 466.759 409.929 467.755 411.279 468.536L419.849 473.492C421.2 474.273 422.499 474.532 423.746 474.269C424.993 474.006 425.965 473.272 426.662 472.067ZM423.888 470.463C423.48 471.169 422.704 471.192 421.561 470.531L412.991 465.575C411.828 464.903 411.45 464.213 411.859 463.507C412.279 462.78 413.071 462.752 414.234 463.425L422.805 468.381C423.948 469.042 424.309 469.735 423.888 470.463ZM433.551 460.153C433.953 459.456 433.97 458.697 433.601 457.873C433.237 457.039 432.578 456.346 431.622 455.793L420.745 449.504C419.821 448.97 418.898 448.755 417.978 448.86C417.053 448.949 416.396 449.332 416.005 450.007C415.801 450.36 415.694 450.797 415.684 451.318C415.663 451.833 415.752 452.494 415.95 453.302L408.954 449.256L407.134 452.404L430.04 465.649L431.86 462.502L430.738 461.853C431.6 461.561 432.235 461.29 432.642 461.041C433.056 460.781 433.359 460.485 433.551 460.153ZM429.689 459.999C429.545 460.248 429.315 460.406 428.999 460.473C428.683 460.54 428.39 460.495 428.12 460.339L418.553 454.807C418.282 454.651 418.098 454.419 417.998 454.112C417.904 453.794 417.927 453.516 418.065 453.277C418.203 453.038 418.421 452.901 418.719 452.865C419.012 452.813 419.299 452.868 419.58 453.03L429.147 458.563C429.438 458.731 429.634 458.955 429.736 459.235C429.843 459.505 429.827 459.76 429.689 459.999ZM438.616 451.393C439.325 450.167 439.464 448.944 439.032 447.724C438.601 446.505 437.679 445.486 436.266 444.669C435.404 444.171 434.47 443.915 433.466 443.903C432.451 443.884 431.091 444.103 429.386 444.558C428.241 444.908 427.339 445.101 426.681 445.136C426.019 445.155 425.449 445.026 424.971 444.75C423.755 444.047 423.334 443.374 423.706 442.73C423.916 442.366 424.222 442.196 424.624 442.221C425.022 442.229 425.579 442.44 426.295 442.855L427.989 439.925C426.379 438.994 425.019 438.637 423.909 438.855C422.789 439.066 421.836 439.874 421.052 441.278C420.376 442.495 420.248 443.676 420.668 444.819C421.088 445.963 422.015 446.95 423.448 447.779C424.061 448.133 424.678 448.372 425.3 448.496C425.911 448.614 426.618 448.613 427.421 448.495C428.224 448.378 429.221 448.15 430.414 447.814C431.627 447.49 432.535 447.322 433.138 447.31C433.741 447.298 434.292 447.437 434.79 447.725C436.016 448.434 436.419 449.152 435.998 449.879C435.734 450.336 435.303 450.565 434.707 450.567C434.099 450.562 433.385 450.323 432.565 449.848L430.871 452.778C432.523 453.733 434.028 454.09 435.386 453.85C436.735 453.604 437.811 452.785 438.616 451.393Z" fill="#606060"/>
<rect id="q1-cutter-2" width="364" height="113" transform="matrix(-1 0 0 1 525 261)" fill="#070707"/>
<path id="q1-l2" d="M91.4894 342H99.2654L110.497 289.08H102.721L91.4894 342ZM114.672 342.576C117.312 342.576 119.676 341.868 121.764 340.452C123.852 339.012 125.508 337.068 126.732 334.62C127.956 332.148 128.568 329.376 128.568 326.304C128.568 324.48 128.244 322.524 127.596 320.436C126.972 318.324 125.94 315.816 124.5 312.912C123.156 310.2 122.208 308.04 121.656 306.432C121.104 304.824 120.828 303.432 120.828 302.256C120.828 300.48 121.212 298.944 121.98 297.648C122.748 296.328 123.66 295.656 124.716 295.632C126.804 295.584 127.296 298.128 126.192 303.264L133.968 302.544C134.952 297.96 134.76 294.456 133.392 292.032C132.024 289.608 129.588 288.432 126.084 288.504C123.78 288.552 121.632 289.296 119.64 290.736C117.648 292.176 116.04 294.06 114.816 296.388C113.616 298.692 113.016 301.176 113.016 303.84C113.016 307.344 114.108 311.436 116.292 316.116C117.516 318.756 118.44 320.832 119.064 322.344C119.712 323.832 120.144 325.008 120.36 325.872C120.6 326.712 120.72 327.468 120.72 328.14C120.72 330.084 120.264 331.788 119.352 333.252C118.44 334.716 117.384 335.448 116.184 335.448C114.912 335.448 114.132 334.74 113.844 333.324C113.556 331.884 113.748 329.592 114.42 326.448L106.644 327.168C105.396 332.232 105.444 336.072 106.788 338.688C108.156 341.28 110.784 342.576 114.672 342.576ZM145.457 342H153.233L162.737 297.072H170.081L171.809 289.08H149.345L147.617 297.072H154.961L145.457 342ZM173.386 342.576C176.506 342.576 179.218 341.532 181.522 339.444C183.826 337.356 185.35 334.572 186.094 331.092L192.718 299.916C193.462 296.46 193.114 293.7 191.674 291.636C190.258 289.548 188.002 288.504 184.906 288.504C181.786 288.504 179.074 289.548 176.77 291.636C174.466 293.7 172.942 296.484 172.198 299.988L165.61 331.164C164.866 334.644 165.19 337.416 166.582 339.48C167.998 341.544 170.266 342.576 173.386 342.576ZM175.006 335.016C174.214 335.016 173.662 334.668 173.35 333.972C173.038 333.276 173.002 332.328 173.242 331.128L179.866 299.952C180.13 298.752 180.562 297.804 181.162 297.108C181.762 296.412 182.47 296.064 183.286 296.064C184.102 296.064 184.666 296.412 184.978 297.108C185.29 297.78 185.314 298.728 185.05 299.952L178.426 331.128C178.186 332.328 177.754 333.276 177.13 333.972C176.53 334.668 175.822 335.016 175.006 335.016ZM200.193 342H218.265L219.777 334.8H209.481L219.201 289.08H211.425L200.193 342ZM231.183 342.576C234.303 342.576 237.015 341.532 239.319 339.444C241.623 337.356 243.147 334.572 243.891 331.092L250.515 299.916C251.259 296.46 250.911 293.7 249.471 291.636C248.055 289.548 245.799 288.504 242.703 288.504C239.583 288.504 236.871 289.548 234.567 291.636C232.263 293.7 230.739 296.484 229.995 299.988L223.407 331.164C222.663 334.644 222.987 337.416 224.379 339.48C225.795 341.544 228.063 342.576 231.183 342.576ZM232.803 335.016C232.011 335.016 231.459 334.668 231.147 333.972C230.835 333.276 230.799 332.328 231.039 331.128L237.663 299.952C237.927 298.752 238.359 297.804 238.959 297.108C239.559 296.412 240.267 296.064 241.083 296.064C241.899 296.064 242.463 296.412 242.775 297.108C243.087 297.78 243.111 298.728 242.847 299.952L236.223 331.128C235.983 332.328 235.551 333.276 234.927 333.972C234.327 334.668 233.619 335.016 232.803 335.016ZM252.712 342H260.488L279.784 289.08H272.224L262.144 318.168L261.352 320.4H260.92L261.136 318.168L263.44 289.08H255.88L252.712 342ZM272.052 342H289.836L291.492 334.008H281.484L284.58 319.464H291.78L293.58 310.968H286.38L289.332 297.072H299.34L301.068 289.08H283.284L272.052 342ZM309.631 342H315.679L324.535 316.944L325.687 313.848H325.975L325.687 316.944L324.031 342H330.079L348.439 289.08H341.239L332.311 316.584L331.735 318.312H331.159L331.375 316.584L333.895 289.08H328.279L319.135 316.584L318.487 318.312H317.911L318.199 316.584L320.935 289.08H313.735L309.631 342ZM340.958 342H348.734L353.63 318.96H359.678L354.782 342H362.558L373.79 289.08H366.014L361.334 310.968H355.286L359.966 289.08H352.19L340.958 342ZM366.15 342H373.71L377.382 331.2H384.87L384.078 342H391.638L394.878 289.08H385.374L366.15 342ZM380.262 322.992L386.022 306.288L386.526 304.92H386.958L386.886 306.288L385.59 322.992H380.262ZM397.949 342H405.725L415.229 297.072H422.573L424.301 289.08H401.837L400.109 297.072H407.453L397.949 342ZM432.776 342H440.552L445.304 319.464L459.704 289.08H452.072L444.584 306L444.224 306.504H444.08L444.008 306L443.72 289.08H436.088L437.528 319.464L432.776 342ZM461.597 342.576C464.717 342.576 467.429 341.532 469.733 339.444C472.037 337.356 473.561 334.572 474.305 331.092L480.929 299.916C481.673 296.46 481.325 293.7 479.885 291.636C478.469 289.548 476.213 288.504 473.117 288.504C469.997 288.504 467.285 289.548 464.981 291.636C462.677 293.7 461.153 296.484 460.409 299.988L453.821 331.164C453.077 334.644 453.401 337.416 454.793 339.48C456.209 341.544 458.477 342.576 461.597 342.576ZM463.217 335.016C462.425 335.016 461.873 334.668 461.561 333.972C461.249 333.276 461.213 332.328 461.453 331.128L468.077 299.952C468.341 298.752 468.773 297.804 469.373 297.108C469.973 296.412 470.681 296.064 471.497 296.064C472.313 296.064 472.877 296.412 473.189 297.108C473.501 297.78 473.525 298.728 473.261 299.952L466.637 331.128C466.397 332.328 465.965 333.276 465.341 333.972C464.741 334.668 464.033 335.016 463.217 335.016ZM487.446 342.576C490.614 342.576 493.362 341.532 495.69 339.444C498.018 337.356 499.542 334.584 500.262 331.128L509.19 289.08H501.414L492.486 331.128C492.246 332.328 491.814 333.276 491.19 333.972C490.59 334.668 489.87 335.016 489.03 335.016C487.35 335.016 486.774 333.72 487.302 331.128L496.23 289.08H488.454L479.526 331.128C478.782 334.608 479.13 337.392 480.57 339.48C482.01 341.544 484.302 342.576 487.446 342.576ZM514.771 342H520.891C524.179 342 526.903 341.688 529.063 341.064C531.247 340.44 533.059 339.276 534.499 337.572C535.963 335.844 537.223 333.384 538.279 330.192C539.359 327 540.439 322.836 541.519 317.7L542.491 313.092C543.571 308.004 544.243 303.888 544.507 300.744C544.771 297.576 544.531 295.152 543.787 293.472C543.067 291.792 541.759 290.64 539.863 290.016C537.967 289.392 535.387 289.08 532.123 289.08H526.003L514.771 342ZM524.203 334.224L532.159 296.856C533.479 296.856 534.487 297.012 535.183 297.324C535.879 297.636 536.299 298.32 536.443 299.376C536.611 300.408 536.515 302.016 536.155 304.2C535.819 306.384 535.255 309.348 534.463 313.092L533.527 317.556C532.711 321.444 532.015 324.516 531.439 326.772C530.863 329.004 530.275 330.66 529.675 331.74C529.075 332.796 528.355 333.48 527.515 333.792C526.675 334.08 525.571 334.224 524.203 334.224ZM551.316 342.576C554.436 342.576 557.148 341.532 559.452 339.444C561.756 337.356 563.28 334.572 564.024 331.092L570.648 299.916C571.392 296.46 571.044 293.7 569.604 291.636C568.188 289.548 565.932 288.504 562.836 288.504C559.716 288.504 557.004 289.548 554.7 291.636C552.396 293.7 550.872 296.484 550.128 299.988L543.54 331.164C542.796 334.644 543.12 337.416 544.512 339.48C545.928 341.544 548.196 342.576 551.316 342.576ZM552.936 335.016C552.144 335.016 551.592 334.668 551.28 333.972C550.968 333.276 550.932 332.328 551.172 331.128L557.796 299.952C558.06 298.752 558.492 297.804 559.092 297.108C559.692 296.412 560.4 296.064 561.216 296.064C562.032 296.064 562.596 296.412 562.908 297.108C563.22 297.78 563.244 298.728 562.98 299.952L556.356 331.128C556.116 332.328 555.684 333.276 555.06 333.972C554.46 334.668 553.752 335.016 552.936 335.016ZM566.005 342H573.565L575.221 334.008H567.661L566.005 342ZM595.541 306.432H599.141L605.045 297.072L606.773 289.08H599.213L597.485 297.072H600.005L595.541 306.432ZM584.885 306.432H588.485L594.389 297.072L596.117 289.08H588.557L586.829 297.072H589.349L584.885 306.432Z" fill="white"/>
<rect id="q1-cutter-2_2" width="547" height="113" transform="matrix(-1 0 0 1 618 93)" fill="#070707"/>
<path id="q1-l1" d="M20.4474 138.432H28.0074L29.6634 130.44H27.1434L31.6794 121.08H28.0794L22.1034 130.44L20.4474 138.432ZM9.79138 138.432H17.3514L19.0074 130.44H16.4874L21.0234 121.08H17.4234L11.4474 130.44L9.79138 138.432ZM29.7849 174H37.5609L47.0649 129.072H54.4089L56.1369 121.08H33.6729L31.9449 129.072H39.2889L29.7849 174ZM47.9581 174H55.7341L60.6301 150.96H66.6781L61.7821 174H69.5581L80.7901 121.08H73.0141L68.3341 142.968H62.2861L66.9661 121.08H59.1901L47.9581 174ZM75.3097 174H93.0937L94.7497 166.008H84.7417L87.8377 151.464H95.0377L96.8377 142.968H89.6377L92.5897 129.072H102.598L104.326 121.08H86.5417L75.3097 174ZM118.253 174.576C121.373 174.576 124.085 173.532 126.389 171.444C128.693 169.356 130.217 166.572 130.961 163.092L137.585 131.916C138.329 128.46 137.981 125.7 136.541 123.636C135.125 121.548 132.869 120.504 129.773 120.504C126.653 120.504 123.941 121.548 121.637 123.636C119.333 125.7 117.809 128.484 117.065 131.988L110.477 163.164C109.733 166.644 110.057 169.416 111.449 171.48C112.865 173.544 115.133 174.576 118.253 174.576ZM119.873 167.016C119.081 167.016 118.529 166.668 118.217 165.972C117.905 165.276 117.869 164.328 118.109 163.128L124.733 131.952C124.997 130.752 125.429 129.804 126.029 129.108C126.629 128.412 127.337 128.064 128.153 128.064C128.969 128.064 129.533 128.412 129.845 129.108C130.157 129.78 130.181 130.728 129.917 131.952L123.293 163.128C123.053 164.328 122.621 165.276 121.997 165.972C121.397 166.668 120.689 167.016 119.873 167.016ZM133.95 174H141.078L146.91 146.316L147.414 143.976H147.846L147.99 146.424L149.718 174H156.63L167.862 121.08H160.734L154.83 148.8L154.326 151.104H153.894L153.75 148.656L152.094 121.08H145.182L133.95 174ZM162.357 174H180.429L181.941 166.8H171.645L181.365 121.08H173.589L162.357 174ZM189.135 174H196.911L201.663 151.464L216.063 121.08H208.431L200.943 138L200.583 138.504H200.439L200.367 138L200.079 121.08H192.447L193.887 151.464L189.135 174ZM223.702 174H229.75L238.606 148.944L239.758 145.848H240.046L239.758 148.944L238.102 174H244.15L262.51 121.08H255.31L246.382 148.584L245.806 150.312H245.23L245.446 148.584L247.966 121.08H242.35L233.206 148.584L232.558 150.312H231.982L232.27 148.584L235.006 121.08H227.806L223.702 174ZM252.868 174H260.428L264.1 163.2H271.588L270.796 174H278.356L281.596 121.08H272.092L252.868 174ZM266.98 154.992L272.74 138.288L273.244 136.92H273.676L273.604 138.288L272.308 154.992H266.98ZM287.502 174H295.278L300.03 151.464L314.43 121.08H306.798L299.31 138L298.95 138.504H298.806L298.734 138L298.446 121.08H290.814L292.254 151.464L287.502 174ZM322.285 174H330.061L339.565 129.072H346.909L348.637 121.08H326.173L324.445 129.072H331.789L322.285 174ZM350.214 174.576C353.334 174.576 356.046 173.532 358.35 171.444C360.654 169.356 362.178 166.572 362.922 163.092L369.546 131.916C370.29 128.46 369.942 125.7 368.502 123.636C367.086 121.548 364.83 120.504 361.734 120.504C358.614 120.504 355.902 121.548 353.598 123.636C351.294 125.7 349.77 128.484 349.026 131.988L342.438 163.164C341.694 166.644 342.018 169.416 343.41 171.48C344.826 173.544 347.094 174.576 350.214 174.576ZM351.834 167.016C351.042 167.016 350.49 166.668 350.178 165.972C349.866 165.276 349.83 164.328 350.07 163.128L356.694 131.952C356.958 130.752 357.39 129.804 357.99 129.108C358.59 128.412 359.298 128.064 360.114 128.064C360.93 128.064 361.494 128.412 361.806 129.108C362.118 129.78 362.142 130.728 361.878 131.952L355.254 163.128C355.014 164.328 354.582 165.276 353.958 165.972C353.358 166.668 352.65 167.016 351.834 167.016ZM377.021 174H383.141C386.429 174 389.153 173.688 391.313 173.064C393.497 172.44 395.309 171.276 396.749 169.572C398.213 167.844 399.473 165.384 400.529 162.192C401.609 159 402.689 154.836 403.769 149.7L404.741 145.092C405.821 140.004 406.493 135.888 406.757 132.744C407.021 129.576 406.781 127.152 406.037 125.472C405.317 123.792 404.009 122.64 402.113 122.016C400.217 121.392 397.637 121.08 394.373 121.08H388.253L377.021 174ZM386.453 166.224L394.409 128.856C395.729 128.856 396.737 129.012 397.433 129.324C398.129 129.636 398.549 130.32 398.693 131.376C398.861 132.408 398.765 134.016 398.405 136.2C398.069 138.384 397.505 141.348 396.713 145.092L395.777 149.556C394.961 153.444 394.265 156.516 393.689 158.772C393.113 161.004 392.525 162.66 391.925 163.74C391.325 164.796 390.605 165.48 389.765 165.792C388.925 166.08 387.821 166.224 386.453 166.224ZM413.566 174.576C416.686 174.576 419.398 173.532 421.702 171.444C424.006 169.356 425.53 166.572 426.274 163.092L432.898 131.916C433.642 128.46 433.294 125.7 431.854 123.636C430.438 121.548 428.182 120.504 425.086 120.504C421.966 120.504 419.254 121.548 416.95 123.636C414.646 125.7 413.122 128.484 412.378 131.988L405.79 163.164C405.046 166.644 405.37 169.416 406.762 171.48C408.178 173.544 410.446 174.576 413.566 174.576ZM415.186 167.016C414.394 167.016 413.842 166.668 413.53 165.972C413.218 165.276 413.182 164.328 413.422 163.128L420.046 131.952C420.31 130.752 420.742 129.804 421.342 129.108C421.942 128.412 422.65 128.064 423.466 128.064C424.282 128.064 424.846 128.412 425.158 129.108C425.47 129.78 425.494 130.728 425.23 131.952L418.606 163.128C418.366 164.328 417.934 165.276 417.31 165.972C416.71 166.668 416.002 167.016 415.186 167.016ZM448.868 174.576C451.244 174.576 453.488 173.544 455.6 171.48L455.996 174H460.604L466.184 147.648H455.312L453.944 154.2H457.04L454.988 163.776C454.748 164.976 454.316 165.924 453.692 166.62C453.092 167.316 452.384 167.664 451.568 167.664C450.776 167.664 450.224 167.316 449.912 166.62C449.6 165.9 449.564 164.952 449.804 163.776L456.572 131.952C456.836 130.752 457.268 129.804 457.868 129.108C458.492 128.412 459.2 128.064 459.992 128.064C461.72 128.064 462.308 129.36 461.756 131.952L460.028 140.088H467.804L469.46 131.952C470.156 128.496 469.784 125.724 468.344 123.636C466.928 121.548 464.684 120.504 461.612 120.504C458.492 120.504 455.78 121.536 453.476 123.6C451.196 125.664 449.672 128.46 448.904 131.988L442.1 163.128C441.332 166.68 441.548 169.476 442.748 171.516C443.948 173.556 445.988 174.576 448.868 174.576ZM466.318 174H474.094L478.846 151.68H480.934L480.214 174H487.99L488.458 148.368C489.802 147.552 491.038 146.208 492.166 144.336C493.318 142.44 494.242 140.304 494.938 137.928C495.634 135.552 495.982 133.212 495.982 130.908C495.982 127.548 495.118 125.076 493.39 123.492C491.662 121.884 488.974 121.08 485.326 121.08H477.55L466.318 174ZM480.358 144.48L483.706 128.784C485.434 128.784 486.61 129.108 487.234 129.756C487.882 130.38 488.206 131.556 488.206 133.284C488.206 135.324 487.846 137.196 487.126 138.9C486.43 140.604 485.482 141.96 484.282 142.968C483.106 143.976 481.798 144.48 480.358 144.48ZM492.333 174H510.117L511.773 166.008H501.765L504.861 151.464H512.061L513.861 142.968H506.661L509.613 129.072H519.621L521.349 121.08H503.565L492.333 174ZM512.251 174H519.811L523.483 163.2H530.971L530.179 174H537.739L540.979 121.08H531.475L512.251 174ZM526.363 154.992L532.123 138.288L532.627 136.92H533.059L532.987 138.288L531.691 154.992H526.363ZM544.051 174H551.827L561.331 129.072H568.675L570.403 121.08H547.939L546.211 129.072H553.555L544.051 174ZM577.725 174H583.773L592.629 148.944L593.781 145.848H594.069L593.781 148.944L592.125 174H598.173L616.533 121.08H609.333L600.405 148.584L599.829 150.312H599.253L599.469 148.584L601.989 121.08H596.373L587.229 148.584L586.581 150.312H586.005L586.293 148.584L589.029 121.08H581.829L577.725 174ZM618.808 174.576C621.928 174.576 624.64 173.532 626.944 171.444C629.248 169.356 630.772 166.572 631.516 163.092L638.14 131.916C638.884 128.46 638.536 125.7 637.096 123.636C635.68 121.548 633.424 120.504 630.328 120.504C627.208 120.504 624.496 121.548 622.192 123.636C619.888 125.7 618.364 128.484 617.62 131.988L611.032 163.164C610.288 166.644 610.612 169.416 612.004 171.48C613.42 173.544 615.688 174.576 618.808 174.576ZM620.428 167.016C619.636 167.016 619.084 166.668 618.772 165.972C618.46 165.276 618.424 164.328 618.664 163.128L625.288 131.952C625.552 130.752 625.984 129.804 626.584 129.108C627.184 128.412 627.892 128.064 628.708 128.064C629.524 128.064 630.088 128.412 630.4 129.108C630.712 129.78 630.736 130.728 630.472 131.952L623.848 163.128C623.608 164.328 623.176 165.276 622.552 165.972C621.952 166.668 621.244 167.016 620.428 167.016ZM634.505 174H642.281L647.033 151.68H649.121L648.401 174H656.177L656.645 148.368C657.989 147.552 659.225 146.208 660.353 144.336C661.505 142.44 662.429 140.304 663.125 137.928C663.821 135.552 664.169 133.212 664.169 130.908C664.169 127.548 663.305 125.076 661.577 123.492C659.849 121.884 657.161 121.08 653.513 121.08H645.737L634.505 174ZM648.545 144.48L651.893 128.784C653.621 128.784 654.797 129.108 655.421 129.756C656.069 130.38 656.393 131.556 656.393 133.284C656.393 135.324 656.033 137.196 655.313 138.9C654.617 140.604 653.669 141.96 652.469 142.968C651.293 143.976 649.985 144.48 648.545 144.48ZM660.521 174H668.297L672.257 155.28L674.993 150.96L675.641 149.88H675.857V150.96L676.361 174H683.921L683.345 138.504L694.217 121.08H686.657L676.433 138.72L675.857 139.584H675.569L675.749 138.684L679.529 121.08H671.753L660.521 174Z" fill="white"/>
</g>
</svg>
