<svg width="150" height="150" viewBox="0 0 150 150" fill="none" xmlns="http://www.w3.org/2000/svg">
<path fill-rule="evenodd" clip-rule="evenodd" d="M75 150C116.421 150 150 116.421 150 75C150 33.5786 116.421 0 75 0C33.5786 0 0 33.5786 0 75C0 116.421 33.5786 150 75 150ZM26.5 46C30.5 42 46.5 41.2165 51 41C60.5 40.5431 82 40.3 96 43.5C103.333 45.5 119.9 50.8 127.5 56C132 58.5 130 70 120.5 67.5C119.239 67.0798 117.704 66.3066 115.774 65.3341C110.812 62.8348 103.238 59.0196 91 56.5C78.1722 53.915 62.7848 54.2886 56.0954 54.451C54.9626 54.4786 54.0793 54.5 53.5 54.5C46.924 54.7989 44.0336 55.5736 41.3234 56.2999C40.4069 56.5456 39.5109 56.7857 38.5 57C36.5 57.5 32.1667 58 30.5 58C26.9 58 25 56.1667 24.5 55C22.1 51 24.8333 47.3334 26.5 46ZM53.5 66.5C49.6837 66.6303 35.0456 67.5629 31.6079 70.9125C30.1795 72.0251 27.8193 75.1066 29.8056 78.5324C30.2155 79.5292 31.8038 81.1088 34.8548 81.1516C36.2673 81.1715 39.0983 80.7865 41.6527 79.9729C41.7967 79.9337 41.9417 79.894 42.0889 79.8537C44.3543 79.2329 47.1407 78.4694 55 77.5C62.5 77 72.8235 77.2272 85.5 79.9729C95.7783 82.2443 102.468 85.8676 106.833 88.2318C108.568 89.172 109.937 89.913 111.017 90.2907C119.038 92.527 120.87 82.7839 117.086 80.6071C110.707 76.1003 96.7301 71.402 90.539 69.6161C77.5 66 61.5567 66.2249 53.5 66.5ZM33.1915 94.9128C35.9167 92.2664 48.6755 90.598 51.6961 90.5C51.9785 90.4908 52.2791 90.4808 52.5965 90.4701C59.4456 90.2406 74.1422 89.748 84 92.5C88.8975 93.9218 102.457 98.5216 107.5 102.097C111.5 104.5 110.846 112.281 104.5 110.5C103.753 110.237 102.449 109.585 100.726 108.723C95.526 106.122 86.5137 101.615 77.5 100.158C71 98.5 52 100 51 100.158C51 100.158 45 101 41.1291 102.097C39.1063 102.738 36.8653 103.038 35.7474 103.021C33.3327 102.983 32.0777 101.73 31.7547 100.941C30.1873 98.227 32.0595 95.7914 33.1915 94.9128Z" fill="#E7DBB3"/>
</svg>
